<svg width="120" height="120" fill="none" xmlns="http://www.w3.org/2000/svg"><path d="M18.75 61.875h82.5v52.5h-82.5v-52.5z" fill="#AABECE"/><path d="M26.25 61.875h67.5v7.5h-67.5v-7.5z" fill="#394D5C"/><path d="M60 61.875c10.355 0 18.75-8.395 18.75-18.75S70.355 24.375 60 24.375s-18.75 8.395-18.75 18.75 8.395 18.75 18.75 18.75z" fill="#F9BB4B"/><path d="M58.125 3.75h3.75v15h-3.75v-15zM67.5 7.5h3.75v13.125H67.5V7.5zm-18.75 0h3.75v13.125h-3.75V7.5z" fill="#2D75BB"/><path d="M24.375 75h7.5v3.75h-7.5V75zm11.25 0h48.75v3.75h-48.75V75zm52.5 0h7.5v3.75h-7.5V75z" fill="#F4F4E6"/><path d="M35.625 108.75h-11.25V95.625h3.75V105h7.5v3.75zm3.75-3.75h3.75v3.75h-3.75V105zm56.25 3.75h-7.5V105h3.75V93.75h3.75v15z" fill="#7D8D9C"/><path d="M65.625 52.5H52.5v-3.75h11.25V45h-9.375a1.875 1.875 0 01-1.875-1.875v-7.5a1.875 1.875 0 011.875-1.875H67.5v3.75H56.25v3.75h9.375a1.875 1.875 0 011.875 1.875v7.5a1.875 1.875 0 01-1.875 1.875z" fill="#FCF05A"/><path d="M58.125 30h3.75v5.625h-3.75V30zm0 20.625h3.75v5.625h-3.75v-5.625z" fill="#FCF05A"/><path d="M71.822 60a20.625 20.625 0 10-23.635 0H16.875v56.25h86.25V60H71.822zM43.125 43.125A16.875 16.875 0 1160 60a16.894 16.894 0 01-16.875-16.875zm48.75 20.625v3.75h-63.75v-3.75h63.75zm7.5 0v48.75h-78.75V63.75h3.75v7.5h71.25v-7.5h3.75zm-41.25-60h3.75v15h-3.75v-15zM67.5 7.5h3.75v13.125H67.5V7.5zm-18.75 0h3.75v13.125h-3.75V7.5z" fill="#000"/><path d="M24.375 75h7.5v3.75h-7.5V75zm11.25 0h48.75v3.75h-48.75V75zm52.5 0h7.5v3.75h-7.5V75zm-60 20.625h-3.75v13.125h11.25V105h-7.5v-9.375zM39.375 105h3.75v3.75h-3.75V105zm52.5 0h-3.75v3.75h7.5v-15h-3.75V105zm-30-75h-3.75v3.75h-3.75a1.875 1.875 0 00-1.875 1.875v7.5A1.875 1.875 0 0054.375 45h9.375v3.75H52.5v3.75h5.625v3.75h3.75V52.5h3.75a1.875 1.875 0 001.875-1.875v-7.5a1.875 1.875 0 00-1.875-1.875H56.25V37.5H67.5v-3.75h-5.625V30z" fill="#000"/></svg>