<svg width="120" height="120" fill="none" xmlns="http://www.w3.org/2000/svg"><g clip-path="url(#clip0)"><path d="M24.24 75.906H2.344v41.746H24.24V75.906z" fill="#FF9155"/><path d="M59.995 49.923a4.687 4.687 0 01-4.687-4.687V35.158a4.687 4.687 0 014.687-4.687c5.17 0 9.375-4.205 9.375-9.374 0-5.169-4.206-9.374-9.375-9.374-5.168 0-9.374 4.205-9.374 9.374a4.687 4.687 0 11-9.374 0c0-10.338 8.41-18.749 18.749-18.749 10.338 0 18.748 8.41 18.748 18.749 0 8.72-5.984 16.069-14.061 18.155v5.984a4.688 4.688 0 01-4.688 4.687zm0 19.481a4.724 4.724 0 01-3.314-1.373 4.713 4.713 0 01-1.373-3.314c0-1.235.5-2.442 1.373-3.314a4.714 4.714 0 013.314-1.373c1.233 0 2.442.499 3.314 1.373a4.722 4.722 0 011.374 3.314 4.723 4.723 0 01-1.374 3.314 4.723 4.723 0 01-3.314 1.373z" fill="#4BB9F5"/><path d="M54.921 77.171l23.604 5.99a6.14 6.14 0 01-1.51 12.09H60.542l5.317.017h11.623c3.27 0 6.42-1.24 8.813-3.469l20.144-18.76a6.671 6.671 0 018.521-.476c3.349 2.485 3.623 7.398.57 10.24l-27.749 25.833a12.654 12.654 0 01-8.62 3.391H24.239V83.905l19.381-6.35a20.273 20.273 0 0111.301-.384z" fill="#FFCDAC"/><path d="M119.986 77.42a9.016 9.016 0 00-15.144-6.095l-19.35 18.02a8.424 8.424 0 00-6.39-8.455L55.47 74.892a22.587 22.587 0 00-12.55.41l-16.337 5.304v-4.7a2.344 2.344 0 00-2.344-2.344H2.344A2.344 2.344 0 000 75.906v41.746a2.343 2.343 0 002.344 2.343h21.895a2.343 2.343 0 002.344-2.343V85.535l17.784-5.774a17.91 17.91 0 019.95-.326l23.632 5.998a3.773 3.773 0 012.843 4.056 3.784 3.784 0 01-3.777 3.419H60.542a2.344 2.344 0 000 4.687h5.05c.087.01.177.016.267.016h11.623a15.23 15.23 0 0010.411-4.097l20.144-18.76a4.329 4.329 0 017.269 2.926 4.314 4.314 0 01-1.372 3.408l-27.75 25.833a10.28 10.28 0 01-7.023 2.763H42.843a2.343 2.343 0 100 4.687H79.16a14.95 14.95 0 0010.218-4.02l27.749-25.833a8.99 8.99 0 002.858-7.099zm-98.09 37.888H4.687V78.249h17.209v37.059z" fill="#000"/><path d="M33.387 109.684c-.62 0-1.221.25-1.66.686a2.362 2.362 0 00-.686 1.657c0 .616.25 1.221.686 1.657.439.436 1.04.687 1.66.687.616 0 1.218-.251 1.656-.687a2.363 2.363 0 00.687-1.657c0-.616-.25-1.221-.687-1.657a2.364 2.364 0 00-1.656-.686zm-20.094-2.421a2.35 2.35 0 00-1.66.687 2.353 2.353 0 00-.684 1.656c0 .617.249 1.221.685 1.657.438.436 1.04.687 1.659.687.616 0 1.219-.251 1.655-.687.438-.436.688-1.04.688-1.657a2.348 2.348 0 00-2.343-2.343zm32.641-79.136a7.039 7.039 0 007.03-7.03 7.039 7.039 0 017.032-7.031 7.039 7.039 0 017.03 7.03 7.039 7.039 0 01-7.03 7.031 7.039 7.039 0 00-7.031 7.031v10.078a7.039 7.039 0 007.03 7.03 7.039 7.039 0 007.031-7.03v-4.25a21.093 21.093 0 0014.062-19.89c0-11.63-9.462-21.091-21.092-21.091-11.63 0-21.093 9.462-21.093 21.092a7.038 7.038 0 007.031 7.03zM59.995 4.692c9.046 0 16.405 7.36 16.405 16.405a16.405 16.405 0 01-12.303 15.886 2.343 2.343 0 00-1.758 2.27v5.983a2.346 2.346 0 01-2.343 2.343 2.346 2.346 0 01-2.344-2.343V35.158a2.346 2.346 0 012.344-2.343c6.46 0 11.717-5.257 11.717-11.718 0-6.462-5.256-11.718-11.717-11.718-6.462 0-11.718 5.257-11.718 11.718a2.346 2.346 0 01-2.344 2.343 2.346 2.346 0 01-2.343-2.343c0-9.046 7.358-16.405 16.404-16.405zm-4.968 55.052a7.07 7.07 0 00-2.062 4.973 7.07 7.07 0 002.06 4.97 7.078 7.078 0 004.97 2.06c1.85 0 3.663-.75 4.971-2.06a7.079 7.079 0 002.06-4.97c0-1.85-.75-3.662-2.057-4.969a7.07 7.07 0 00-4.974-2.062 7.066 7.066 0 00-4.968 2.058zm7.312 4.973a2.39 2.39 0 01-.688 1.657c-.43.43-1.049.687-1.656.687a2.395 2.395 0 01-1.658-.69 2.384 2.384 0 01-.685-1.654c0-.618.25-1.22.689-1.659a2.386 2.386 0 011.654-.685c.609 0 1.227.256 1.657.688.43.43.687 1.049.687 1.656zm-49.047 37.936a2.344 2.344 0 002.343-2.344V85.427a2.344 2.344 0 00-4.687 0v14.882a2.343 2.343 0 002.344 2.344z" fill="#000"/></g><defs><clipPath id="clip0"><path fill="#fff" d="M0 0h120v120H0z"/></clipPath></defs></svg>