<svg width="120" height="120" fill="none" xmlns="http://www.w3.org/2000/svg"><path d="M113.135 25.858c-11.047-3.326-12.428-15.396-12.496-20.595-.017-1.327-1.125-2.41-2.452-2.41H21.813c-1.327 0-2.435 1.083-2.452 2.41-.068 5.2-1.449 17.27-12.496 20.595a2.442 2.442 0 00-1.742 2.439c.415 9.82 4.813 53.852 49.739 87.139a8.614 8.614 0 0010.276 0c44.926-33.287 49.324-77.32 49.739-87.14a2.443 2.443 0 00-1.742-2.438z" fill="#5FCDFF"/><path d="M63.516 116.385a8.62 8.62 0 01-8.654-.946C9.938 82.148 5.536 38.119 5.123 28.298a2.45 2.45 0 011.744-2.442C17.911 22.532 19.294 10.462 19.36 5.264a2.465 2.465 0 012.452-2.41h7.031c-1.326 0-2.433 1.083-2.451 2.41-.066 5.198-1.449 17.268-12.493 20.592a2.45 2.45 0 00-1.743 2.442c.412 9.82 4.814 53.85 49.739 87.141a8.333 8.333 0 001.622.946z" fill="#73D7F9"/><path d="M114.877 28.298c-.413 9.82-4.815 53.85-49.74 87.141a8.62 8.62 0 01-8.653.946 8.329 8.329 0 001.622-.946c44.925-33.291 49.327-77.32 49.739-87.141a2.45 2.45 0 00-1.743-2.442C95.058 22.532 93.675 10.462 93.609 5.264c-.018-1.327-1.125-2.41-2.451-2.41h7.031a2.464 2.464 0 012.452 2.41c.065 5.198 1.448 17.268 12.492 20.592a2.451 2.451 0 011.744 2.442z" fill="#30B6FF"/><path d="M57.057 58.272a4.047 4.047 0 01-3.14-1.494l-7.534-9.265a4.047 4.047 0 116.28-5.107l4.815 5.922 13.066-12.065a4.047 4.047 0 115.491 5.947L59.803 57.198a4.05 4.05 0 01-2.746 1.073z" fill="#FFEFEE"/><path d="M86.72 15.515h3.52a1.875 1.875 0 000-3.75h-3.52a1.875 1.875 0 000 3.75zm-24.375 0H79.69a1.875 1.875 0 000-3.75H62.345a1.875 1.875 0 000 3.75zm11.18 17.805a5.855 5.855 0 00-4.253 1.566l-11.598 10.71-3.555-4.373a5.93 5.93 0 00-8.331-.858 5.929 5.929 0 00-.86 8.33l7.535 9.267c2.128 2.618 6.072 2.96 8.612.614l16.233-14.989c3.837-3.544 1.51-10.057-3.783-10.268zm-14.994 22.5a2.173 2.173 0 01-3.16-.225c-8.142-10.014-8.134-9.643-8.009-10.86.2-1.93 2.636-2.634 3.847-1.147l4.814 5.922a1.876 1.876 0 002.727.194L71.816 37.64c1.428-1.32 3.72-.23 3.643 1.682-.048 1.244.643.272-16.928 16.498z" fill="#1D1D1B"/><path d="M113.676 24.062c-9.891-2.977-11.101-14.155-11.162-18.823-.031-2.35-1.972-4.26-4.327-4.26H21.813c-2.355 0-4.296 1.91-4.327 4.26-.061 4.668-1.271 15.847-11.162 18.823a4.316 4.316 0 00-3.074 4.314c.215 5.108 1.458 18.785 8.317 35.406 8.643 20.942 22.834 38.828 42.178 53.161A10.486 10.486 0 0060 119.022a10.49 10.49 0 006.254-2.079c19.344-14.333 33.535-32.219 42.178-53.161 6.859-16.621 8.102-30.297 8.317-35.406a4.314 4.314 0 00-3.073-4.314zM64.022 113.93a6.72 6.72 0 01-8.044 0C11.408 80.907 7.356 36.736 6.997 28.217a.569.569 0 01.409-.564c12.266-3.692 13.758-16.87 13.83-22.365a.589.589 0 01.577-.56h76.374c.303 0 .574.262.577.56.072 5.494 1.564 18.673 13.83 22.365.252.076.42.308.409.564-.359 8.52-4.412 52.69-48.98 85.713z" fill="#1D1D1B"/><path d="M43.393 78.596c4.222-2.582 4.111-8.414 4.103-8.683-.07-2.457-3.799-2.378-3.748.1 0 .043.051 4.025-2.435 5.453a111.336 111.336 0 01-3.239-5.41c3.916-2.316 4.401-7.597 4.422-7.852.204-2.462-3.513-2.773-3.736-.316-.004.04-.34 3.442-2.48 4.853a131.048 131.048 0 01-3.053-6.263c4.015-2.517 4.648-7.994 4.676-8.252a1.875 1.875 0 10-3.73-.396c-.004.04-.427 3.434-2.485 5.14a147.642 147.642 0 01-2.213-5.54c3.777-3.074 4.814-8.456 4.86-8.701a1.876 1.876 0 00-3.688-.682c-.007.04-.652 3.251-2.567 5.518a151.387 151.387 0 01-2.218-6.951c4.107-2.913 5.452-8.018 5.51-8.242a1.875 1.875 0 00-3.635-.928c-.009.036-.833 3.033-2.974 5.193-.647-2.492-.945-3.965-.958-4.03a1.874 1.874 0 10-3.68.725c.053.263.36 1.788.985 4.236-2.625-.81-4.559-2.943-4.587-2.974a1.875 1.875 0 00-2.81 2.483c.157.178 3.652 4.08 8.49 4.507a150.818 150.818 0 002.389 7.513c-2.636-.365-5.058-3.183-5.817-4.336a1.875 1.875 0 00-3.138 2.052c3.173 4.875 8.294 6.648 10.287 5.97a148.387 148.387 0 002.242 5.616c-2.57.296-5.305-2.11-6.192-3.13a1.875 1.875 0 00-2.84 2.45c2.453 2.851 6.899 5.331 10.571 4.183.943 2.07 1.965 4.181 3.075 6.313-3.064.411-6.26-1.882-6.296-1.908a1.875 1.875 0 00-2.227 3.017c2.159 1.599 6.456 3.493 10.374 2.317a115.88 115.88 0 003.24 5.431c-2.19.317-4.675-.258-5.726-.622a1.875 1.875 0 00-1.239 3.54c2.348.825 6.131 1.365 9.163.41a97.137 97.137 0 004.974 6.62c.37.45.908.684 1.449.684 1.566 0 2.458-1.837 1.448-3.066a92.207 92.207 0 01-4.547-6.042zm60.017-43.312c-.023.029-1.839 2.262-4.416 3.217.489-2.476.712-4.014.75-4.28a1.875 1.875 0 00-3.714-.522c-.009.066-.226 1.554-.736 4.078-2.268-2.045-3.245-4.994-3.256-5.03a1.874 1.874 0 00-3.575 1.131c.069.22 1.692 5.245 5.952 7.929a150.47 150.47 0 01-1.836 7.064c-2.047-2.163-2.854-5.337-2.864-5.376a1.874 1.874 0 00-3.644.887c.059.242 1.389 5.56 5.329 8.423a148.423 148.423 0 01-1.907 5.654c-2.151-1.587-2.752-4.94-2.763-5.004a1.876 1.876 0 00-3.701.605c.041.257.973 5.69 5.12 7.984a131.505 131.505 0 01-2.706 6.42c-2.2-1.284-2.73-4.631-2.741-4.708a1.876 1.876 0 00-3.714.52c.035.253.81 5.5 4.846 7.597a111.55 111.55 0 01-2.938 5.58c-2.551-1.286-2.727-5.242-2.73-5.311-.074-2.489-3.812-2.36-3.748.105.007.268.217 6.097 4.573 8.445a91.337 91.337 0 01-4.21 6.28 1.875 1.875 0 003.023 2.219 97.344 97.344 0 004.6-6.875c2.962.76 6.718.08 9.13-.919a1.873 1.873 0 001.015-2.445 1.877 1.877 0 00-2.446-1.02c-1.03.42-3.479 1.13-5.682.934a116.422 116.422 0 002.936-5.597c3.522.851 7.64-.731 10.233-2.885a1.874 1.874 0 10-2.394-2.887c-.034.028-3.11 2.483-6.177 2.246a134.04 134.04 0 002.724-6.472c3.71.946 8.033-1.768 10.325-4.755a1.874 1.874 0 10-2.971-2.286c-.03.039-2.914 3.658-6.008 3.459a148.5 148.5 0 001.93-5.73c2.04.57 7.035-1.476 9.946-6.524 1.232-2.14-2-4.016-3.247-1.877-.695 1.193-2.954 4.147-5.57 4.65a149.583 149.583 0 001.973-7.631c4.808-.692 8.084-4.781 8.231-4.969 1.527-1.938-1.398-4.257-2.942-2.324z" fill="#1D1D1B"/></svg>