<svg width="120" height="120" fill="none" xmlns="http://www.w3.org/2000/svg"><path d="M24.803 37.108l12.404-12.514 57.372 57.88L82.174 94.99 24.803 37.11z" fill="#F4EFED"/><path d="M68.15 72.094L47.51 51.27a2.69 2.69 0 010-3.781 2.634 2.634 0 013.748 0l20.641 20.824a2.69 2.69 0 010 3.781 2.634 2.634 0 01-3.748 0z" fill="#D6D1CF"/><path d="M24.802 37.108l2.735-2.76L84.91 92.23l-2.735 2.76-57.372-57.88z" fill="#fff"/><path d="M34.473 27.354l2.735-2.76 57.372 57.88-2.735 2.76-57.372-57.88z" fill="#D6D1CF"/><path d="M82.19 95.932a.92.92 0 01-.656-.275l-57.38-57.889a.943.943 0 010-1.325L36.56 23.926a.923.923 0 011.314 0l57.38 57.89a.943.943 0 010 1.325L82.848 95.657a.923.923 0 01-.657.275zM26.125 37.105L82.19 93.668l11.093-11.19-56.066-56.564-11.093 11.191z" fill="#1D1D1B"/><path d="M40.63 48.306a.92.92 0 01-.657-.274l-4.042-4.078a.943.943 0 010-1.326.923.923 0 011.314 0l4.043 4.078a.943.943 0 010 1.326.92.92 0 01-.657.275zm29.395 25.509a3.538 3.538 0 01-2.531-1.058L46.852 51.933a3.638 3.638 0 010-5.107 3.562 3.562 0 015.062 0L72.555 67.65a3.602 3.602 0 011.049 2.553 3.6 3.6 0 01-1.049 2.554 3.54 3.54 0 01-2.53 1.058zM49.383 47.644c-.44 0-.882.169-1.217.507a1.75 1.75 0 000 2.456l20.641 20.825c.65.655 1.784.655 2.433 0 .326-.329.505-.765.505-1.228 0-.464-.18-.9-.505-1.228L50.6 48.151a1.705 1.705 0 00-1.217-.507z" fill="#1D1D1B"/><path d="M103.174 117.302l-12.438-12.549 2.86-10.77L104.27 91.1l12.438 12.548c2.002-6.863.32-14.588-5.048-20.004a19.897 19.897 0 00-28.315 0c-7.82 7.889-7.82 20.678 0 28.566a19.893 19.893 0 0019.828 5.093z" fill="#F4EFED"/><path d="M83.345 83.643c-.461.465-.893.95-1.3 1.447a19.893 19.893 0 0126.88 1.312c4.16 4.197 6.096 9.779 5.829 15.274l1.954 1.971c2.002-6.864.32-14.589-5.048-20.004a19.897 19.897 0 00-28.315 0z" fill="#D6D1CF"/><path d="M83.345 83.643c.462-.466.942-.902 1.435-1.312-6.489 7.935-6.057 19.696 1.3 27.118a19.856 19.856 0 0015.14 5.881l1.954 1.971a19.895 19.895 0 01-19.829-5.092c-7.818-7.888-7.818-20.678 0-28.566z" fill="#fff"/><path d="M97.506 119.064c-5.48 0-10.83-2.169-14.818-6.192-8.169-8.241-8.169-21.65 0-29.892 8.17-8.242 21.461-8.242 29.63 0 5.427 5.475 7.451 13.496 5.282 20.932a.924.924 0 01-1.548.398l-12.059-12.166-9.639 2.605-2.582 9.725 12.059 12.165a.942.942 0 01-.395 1.562c-1.955.58-3.951.863-5.93.863zm-.003-40.39a18.95 18.95 0 00-13.5 5.632c-7.444 7.51-7.444 19.73 0 27.24a18.985 18.985 0 0017.353 5.247l-11.277-11.377a.944.944 0 01-.24-.906l2.859-10.77a.935.935 0 01.657-.663l10.675-2.885a.924.924 0 01.898.243l11.278 11.377c1.287-6.316-.636-12.9-5.202-17.507a18.952 18.952 0 00-13.5-5.632z" fill="#1D1D1B"/><path d="M16.647 2.698l12.438 12.548-2.86 10.77-10.675 2.885L3.112 16.353c-2.002 6.864-.32 14.589 5.048 20.004a19.898 19.898 0 0028.315 0c7.819-7.888 7.819-20.678 0-28.566a19.893 19.893 0 00-19.828-5.093z" fill="#F4EFED"/><path d="M36.475 36.357c.462-.465.894-.95 1.3-1.447a19.894 19.894 0 01-26.88-1.312C6.736 29.4 4.8 23.818 5.065 18.324l-1.953-1.971c-2.002 6.864-.32 14.589 5.048 20.004a19.898 19.898 0 0028.315 0z" fill="#fff"/><path d="M36.475 36.357c-.461.466-.941.902-1.434 1.312 6.489-7.935 6.056-19.696-1.3-27.119A19.866 19.866 0 0018.6 4.67l-1.954-1.972a19.895 19.895 0 0119.828 5.093c7.82 7.888 7.82 20.678 0 28.566z" fill="#D6D1CF"/><path d="M22.318 43.2c-5.366 0-10.73-2.06-14.815-6.18C2.075 31.544.052 23.524 2.22 16.088a.924.924 0 011.548-.398l12.059 12.165 9.638-2.604 2.582-9.725L15.99 3.361a.943.943 0 01-.244-.894.932.932 0 01.639-.668 20.83 20.83 0 0120.747 5.329c8.17 8.24 8.17 21.65 0 29.892a20.792 20.792 0 01-14.814 6.18zM3.616 18.187c-1.288 6.317.635 12.901 5.2 17.508 7.445 7.51 19.558 7.51 27.002 0 7.444-7.51 7.444-19.73 0-27.24a18.987 18.987 0 00-17.354-5.248l11.278 11.378a.943.943 0 01.24.905l-2.859 10.77a.935.935 0 01-.657.664L15.79 29.807a.925.925 0 01-.897-.242L3.616 18.185z" fill="#1D1D1B"/><path d="M82.601 24.581l12.405 12.515-57.372 57.88-12.405-12.514 57.372-57.88z" fill="#F4EFED"/><path d="M47.922 68.313l20.642-20.824a2.634 2.634 0 013.748 0 2.69 2.69 0 010 3.781L51.67 72.094a2.634 2.634 0 01-3.749 0 2.69 2.69 0 010-3.781z" fill="#D6D1CF"/><path d="M25.217 82.474l57.372-57.88 2.735 2.759-57.372 57.88-2.735-2.76z" fill="#fff"/><path d="M34.886 92.23l57.371-57.88 2.735 2.76-57.371 57.88-2.735-2.76z" fill="#D6D1CF"/><path d="M37.63 95.932a.92.92 0 01-.657-.275L24.566 83.141a.943.943 0 010-1.326l57.38-57.89a.923.923 0 011.315 0l12.407 12.518a.943.943 0 010 1.325l-57.381 57.89a.922.922 0 01-.657.274zM26.538 82.478l11.092 11.19 56.066-56.563-11.092-11.19-56.066 56.563z" fill="#1D1D1B"/><path d="M49.796 73.815a3.54 3.54 0 01-2.531-1.058 3.604 3.604 0 01-1.048-2.553c0-.964.372-1.871 1.048-2.553l20.642-20.825a3.562 3.562 0 015.062 0 3.638 3.638 0 010 5.107L52.328 72.758a3.543 3.543 0 01-2.532 1.057zm20.642-26.171c-.441 0-.882.169-1.217.508L48.579 68.975a1.73 1.73 0 00-.504 1.227c0 .464.18.9.504 1.228.65.656 1.784.656 2.434 0l20.642-20.824a1.75 1.75 0 000-2.456 1.71 1.71 0 00-1.217-.507zM47.922 68.313h.005-.005z" fill="#1D1D1B"/><path d="M3.112 103.647L15.55 91.099l10.675 2.885 2.86 10.769-12.438 12.549a19.893 19.893 0 0019.828-5.093c7.819-7.888 7.819-20.678 0-28.566a19.897 19.897 0 00-28.315 0c-5.368 5.415-7.05 13.14-5.048 20.004z" fill="#F4EFED"/><path d="M36.475 83.643a20.299 20.299 0 00-1.434-1.312c6.489 7.935 6.056 19.696-1.3 27.118a19.856 19.856 0 01-15.14 5.881l-1.954 1.971a19.895 19.895 0 0019.828-5.092c7.82-7.888 7.82-20.678 0-28.566z" fill="#D6D1CF"/><path d="M36.475 83.643c.462.465.894.95 1.3 1.447a19.893 19.893 0 00-26.88 1.312c-4.16 4.197-6.095 9.779-5.83 15.274l-1.953 1.971c-2.002-6.864-.32-14.589 5.048-20.004a19.898 19.898 0 0128.315 0z" fill="#fff"/><path d="M22.315 119.064c-1.98 0-3.975-.282-5.93-.863a.943.943 0 01-.395-1.562l12.058-12.165-2.582-9.725-9.638-2.605L3.769 104.31a.925.925 0 01-1.548-.398C.052 96.476 2.076 88.455 7.503 82.98c8.168-8.242 21.46-8.242 29.63 0 8.168 8.241 8.168 21.651 0 29.892a20.852 20.852 0 01-14.818 6.192zm-3.85-2.27a18.992 18.992 0 0017.353-5.247c7.444-7.511 7.444-19.73 0-27.24-7.444-7.51-19.557-7.51-27.001 0-4.566 4.606-6.489 11.19-5.201 17.507l11.277-11.378a.925.925 0 01.898-.242l10.675 2.884c.32.087.571.34.658.664l2.859 10.77a.943.943 0 01-.24.905l-11.279 11.377z" fill="#1D1D1B"/><path d="M116.709 16.353L104.271 28.9l-10.675-2.885-2.86-10.77 12.438-12.548A19.894 19.894 0 0083.346 7.79c-7.82 7.888-7.82 20.678 0 28.566a19.898 19.898 0 0028.315 0c5.368-5.415 7.05-13.14 5.048-20.004z" fill="#F4EFED"/><path d="M83.345 36.357c.462.466.942.902 1.435 1.312-6.489-7.935-6.057-19.696 1.3-27.119a19.86 19.86 0 0115.14-5.88l1.954-1.972a19.895 19.895 0 00-19.829 5.093c-7.818 7.888-7.818 20.678 0 28.566z" fill="#fff"/><path d="M83.345 36.357c-.461-.465-.893-.95-1.3-1.447a19.893 19.893 0 0026.88-1.312c4.16-4.197 6.096-9.779 5.829-15.274l1.954-1.97c2.002 6.863.32 14.588-5.048 20.003a19.897 19.897 0 01-28.315 0z" fill="#D6D1CF"/><path d="M97.503 43.2c-5.365 0-10.73-2.06-14.815-6.18-8.169-8.241-8.169-21.65 0-29.892a20.827 20.827 0 0120.748-5.329.942.942 0 01.395 1.562L91.772 15.526l2.582 9.725 9.639 2.604 12.059-12.165a.925.925 0 011.548.398c2.169 7.436.145 15.457-5.282 20.932a20.794 20.794 0 01-14.815 6.18zm.003-40.39c-4.995 0-9.87 1.977-13.503 5.643-7.444 7.51-7.444 19.73 0 27.24 7.444 7.51 19.557 7.51 27.001 0 4.566-4.606 6.489-11.19 5.201-17.507l-11.277 11.378a.927.927 0 01-.898.243l-10.675-2.885a.935.935 0 01-.658-.663l-2.86-10.77a.944.944 0 01.241-.906l11.278-11.377a18.938 18.938 0 00-3.85-.395z" fill="#1D1D1B"/></svg>