<svg width="95" height="48" fill="none" xmlns="http://www.w3.org/2000/svg"><g clip-path="url(#clip0)" fill-rule="evenodd" clip-rule="evenodd"><path d="M15.185 28.582c.01-.386-.064-.77-.219-1.124a2.183 2.183 0 00-.588-.778 2.407 2.407 0 00-.837-.45 3.305 3.305 0 00-.972-.143 3.124 3.124 0 00-2.192 1.008l-7.132 6.974V26.32H.588v7.6c0 .382.06.761.18 1.124.108.34.28.657.507.934.223.265.5.479.815.626.343.158.718.238 1.096.232a2.9 2.9 0 001.159-.24c.4-.18.757-.443 1.048-.77l7.132-6.91v7.782h2.642v-8.116h.018zm4.042-2.298h-2.642V36.68h2.642v-3.927h9.653v3.938h2.646V26.284h-2.642v3.814h-9.657v-3.814zm26.165 6.487h-9.72v1.309h9.72v-1.31zm-.124-3.91h-9.599v1.212h9.599v-1.211zm-12.321-2.614h11.327c.435-.005.87.024 1.3.088.33.048.651.148.95.294.26.13.492.307.684.524.202.235.375.494.515.77a3.394 3.394 0 01-.03 3.106l-.054.11a.732.732 0 01-.07.108l-.04.07-.04.094.07.109.124.19c.036.062.068.121.095.177.032.062.068.122.11.178.245.447.379.946.39 1.455.008.483-.105.96-.328 1.39A3.09 3.09 0 0146.945 36a3.895 3.895 0 01-1.645.615c-.186.027-.374.04-.562.04H32.936V26.218l.01.03zm16.636 3.338v-.141a.95.95 0 010-.157c.018-.365.1-.724.241-1.061.15-.325.356-.62.61-.873.073-.073.146-.14.22-.204l.233-.204a3.06 3.06 0 01.925-.512 4.554 4.554 0 011.238-.186h11.42v2.615H52.3v1.265h12.171v2.702l-12.17.03v1.225h12.17v2.603h-11.17a4.233 4.233 0 01-1.505-.232 3.386 3.386 0 01-1.096-.71 4.03 4.03 0 01-.862-1.163 2.97 2.97 0 01-.245-1.218v-3.771l-.011-.008zm15.69-3.338h14.896v2.615h-6.084v7.822h-2.733v-7.815H65.27v-2.614l.003-.008zm22.398 2.659l-1.272 2.261h2.517l-1.245-2.262zm-2.986-.135l.424-.844a.985.985 0 00.095-.142l.08-.141c.26-.43.594-.81.987-1.124a2.609 2.609 0 011.001-.458 2.18 2.18 0 011.462.225c.527.344.964.81 1.271 1.357.037.063.073.122.11.178.037.056.073.115.11.178l.438.833 4.385 7.862h-3.08l-1.546-2.862h-5.48l-1.535 2.862h-3.11l4.388-7.924z" fill="#404040"/><path d="M4.794 46.524H3.84V40.81H.263v-.79h8.1v.79H4.79v5.713h.004zm12.032-3.979a2.004 2.004 0 00-.208-.945 1.459 1.459 0 00-.61-.61 1.951 1.951 0 00-.94-.215h-2.992a1.716 1.716 0 00-.877.218c-.253.145-.458.36-.592.618a1.96 1.96 0 00-.212.93l6.431.005zm-6.43.79v.629c0 1.197.608 1.795 1.826 1.792h3.11c.406.03.808-.092 1.129-.341a1.09 1.09 0 00.365-.844v-.131h.954v.13a2.057 2.057 0 01-.223.917 1.797 1.797 0 01-.73.757 2.67 2.67 0 01-1.36.305h-3.205c-.945 0-1.649-.206-2.112-.618a2.33 2.33 0 01-.694-1.818V42.4a2.24 2.24 0 01.33-1.164c.23-.38.563-.69.96-.894.46-.236.97-.353 1.487-.342h2.752a2.995 2.995 0 012.075.658 2.121 2.121 0 01.73 1.633v1.055l-7.395-.011zm9.737 3.189h-.957v-6.506h8.235v6.506h-.953V40.81h-6.329v5.713h.004zm16.442-5.713h-5.48v3.273c0 1.614-.786 2.421-2.357 2.421h-.278v-.789h.278a1.33 1.33 0 001.06-.4 1.91 1.91 0 00.343-1.261v-4.037h7.373v6.506h-.954V40.81h.015zm10.549 3.273a1.363 1.363 0 00-.505-1.117 2.402 2.402 0 00-1.534-.41h-5.1v-2.528h-.976v6.506h5.9c1.462 0 2.193-.553 2.193-1.659v-.789l.022-.003zm-7.122-.728h4.75c.393-.04.79.04 1.137.226a.862.862 0 01.292.727v.473a.87.87 0 01-.31.727 1.892 1.892 0 01-1.13.247h-4.757v-2.418l.018.018zm8.58 3.19v-6.528h.953v6.506l-.953.021zm2.51 0v-6.528h.953v5.771h.307l5.39-5.77h1.553v6.505h-.954v-5.768h-.263l-5.36 5.768-1.626.021zm3.884-7.757h.12c.387.012.773-.022 1.151-.102a.834.834 0 00.527-.32c.1-.185.147-.393.135-.603h.763a2.21 2.21 0 01-.193 1.003c-.172.287-.45.496-.775.582a5.44 5.44 0 01-1.692.204 5.16 5.16 0 01-1.648-.204c-.323-.09-.6-.3-.774-.585a2.172 2.172 0 01-.197-1h.77c-.01.208.036.416.136.6a.834.834 0 00.515.283c.38.08.767.114 1.155.102l.007.04zm10.417 6.967c.67-.368 1.005-1.198 1.005-2.49V40.04h7.22v5.713h.767v3.273h-.913v-2.477h-7.673v2.477h-.914v-3.273l.508.003zm7.308 0v-4.945h-5.368v2.32c0 1.38-.278 2.248-.833 2.607l6.2.018zm2.685-3.189a2.59 2.59 0 01.706-1.869c.455-.458 1.174-.687 2.155-.687h2.62a3.478 3.478 0 011.662.345c.396.2.715.521.91.917.188.407.286.85.289 1.298v1.422a3.128 3.128 0 01-.296 1.309c-.2.398-.523.723-.92.927a3.419 3.419 0 01-1.641.364h-2.62c-1.88 0-2.833-.862-2.857-2.586v-1.418l-.008-.022zm.954 1.422c0 1.195.656 1.793 1.97 1.793h2.488c1.317 0 1.975-.598 1.973-1.793v-1.422a1.669 1.669 0 00-.508-1.309A2.116 2.116 0 0080.8 40.8h-2.488a2.82 2.82 0 00-1.096.178 1.313 1.313 0 00-.65.571 2.173 2.173 0 00-.23 1.018v1.422h.003zm18.7-3.949h-1.765l-3.317 5.516-3.289-5.541h-1.724v6.505h.953v-5.764h.293l3.467 5.771h.636l3.468-5.77h.292v5.77h.953l.033-6.487z" fill="#FF8500"/><path d="M49.024 7.01c-.344-.22-.41.245-.366-1.534a9.965 9.965 0 00-.051-1.727L37.423 2.724c.464.727 2.755 2.05 3.489 2.545 1.228.862 10.023 6.865 10.647 7.164 3.325-1.564.479-1.67 6.358-2.233l2.046-.193c.578.066.267-.12.515.306l-.95.243c-.314.04-.64.055-.953.08-4.7.397-3.738.226-8.185 3.19l-2.685 1.912c2.59.171 8.827 1.637 11.692 2.418 1.688.459 2.02-.363 3.215-1.12.95-.61 10.512-7.025 11.327-7.745-2.064 0-9.39.727-10.026 1.036 0 .688.303 2.673-.26 2.986-.61-.28-.303-6.298-.288-7.19-.965.444-1.736 1.142-2.602 1.67-.73-.244-2.875-1.72-3.558-2.182-1.959-1.32-2.887-.451-4.926-1.033l-.095-2.829C51.57 1.291 50.16.105 49.393-.124l.029 6.339c-.12 1.105.128.476-.398.796z" fill="#404040"/><path d="M7.775 22.102c.044 0 5.963-1.898 9.358-2.47 11.864-2 22.11-.585 33.674 1.19 8.433 1.29 22.829 5.847 31.832 3.56 1.652-.422 3.226-1.157 3.891-2.226.998-1.607.695-3.334-.303-4.676.292 1.978.629 3.367-1.023 4.436-3.226 2.095-12.715.03-16.037-.694-6.748-1.455-13.18-3.637-20.14-4.618-13.391-1.891-27.177-2.222-39.403 4.323-.544.295-1.556 1.051-1.849 1.175z" fill="url(#paint0_linear)"/><path d="M24.795 9.287c.672.727 3.548 2.462 4.57 3.182.83.582 1.48.978 2.361 1.596 1.444 1.019 1.422.619 3.387.644 5.39.066 6.493.407 11.083.811 1.132.098 1.889-.767 2.652-1.204-.5-.614-2.298-1.614-3.098-2.163-1.338-.913-1.728-1.426-3.913-1.27.043 2.939.266 2.91-.582 2.979-.478-.658-.142-6.066-.233-7.247-3.084 2-2.763 1.665-2.759 3.843l-5.908-.698c.588-.28 4.06-3.193 4.827-3.84.317-.265.474-.364.818-.615.519-.407.588-.45.807-.978-.73-.243-.654-.443-1.344-.683L30.97 8.909c-1.692 1.495-2.645.476-6.175.378zm47.585 1.768c.46.57 1.826 1.549 2.513 2.112l5.276 4.277c1.68 1.367 1.03 1.185 3.785 1.192-.317-.61-6.408-5.4-7.71-6.458-.73-.589-1.895-1.724-2.655-1.982-.41.313-.812.517-1.21.859zm-56.179 6.25c.676-.047 2.375-.589 3.08-.781 1.056-.288 5.189-3.808 6.464-4.906l.56-.567-1.283-.92-6.596 5.345c-.482.408-.701.546-1.096.88-.394.335-.72.659-1.129.95z" fill="#404040"/></g><defs><linearGradient id="paint0_linear" x1="25.445" y1="-4.742" x2="70.878" y2="47.431" gradientUnits="userSpaceOnUse"><stop stop-color="#E30613"/><stop offset=".25" stop-color="#EF7D00"/><stop offset=".36" stop-color="#FFED00"/><stop offset=".49" stop-color="#009640"/><stop offset=".59" stop-color="#009FE3"/><stop offset=".7" stop-color="#312783"/><stop offset="1" stop-color="#AD4582"/></linearGradient><clipPath id="clip0"><path fill="#fff" d="M0 0h95v48H0z"/></clipPath></defs></svg>