<svg width="116" height="60" fill="none" xmlns="http://www.w3.org/2000/svg"><path fill-rule="evenodd" clip-rule="evenodd" d="M18.138 35.043a3.24 3.24 0 00-.267-1.372 2.664 2.664 0 00-.715-.95 2.916 2.916 0 00-1.017-.55 4 4 0 00-1.181-.173 3.785 3.785 0 00-2.665 1.23l-8.669 8.514v-9.46H.395v9.278a4.34 4.34 0 00.218 1.371c.132.416.341.803.617 1.141.27.324.609.585.99.764.418.193.873.29 1.333.284.484 0 .964-.1 1.408-.293.486-.22.92-.541 1.274-.941l8.67-8.435v9.5h3.21v-9.908h.023zm4.912-2.806h-3.211V44.93h3.21v-4.794h11.734v4.807H38V32.237h-3.211v4.657H23.05v-4.657zm31.803 7.92H43.04v1.598h11.813v-1.598zm-.15-4.772H43.034v1.478h11.667v-1.478zm-14.977-3.192h13.768c.53-.006 1.058.03 1.581.107.401.06.79.18 1.155.36.315.157.597.374.83.638.246.288.457.604.627.941a4.157 4.157 0 01-.036 3.792l-.067.133a.887.887 0 01-.084.133l-.049.084-.049.116.085.133.15.23c.045.078.084.15.116.218.039.076.084.149.133.218.299.545.462 1.154.476 1.775a3.55 3.55 0 01-.4 1.696 3.756 3.756 0 01-1.221 1.332c-.6.4-1.284.656-1.999.75a4.59 4.59 0 01-.684.049H39.713v-12.74l.014.035zm20.221 4.075v-.173a1.17 1.17 0 010-.19c.022-.447.121-.885.293-1.297.182-.397.433-.757.742-1.066.089-.088.178-.171.267-.248l.284-.249a3.72 3.72 0 011.123-.626 5.508 5.508 0 011.506-.226H78.04v3.192H63.25v1.545h14.794v3.298l-14.794.035v1.496h14.794v3.179H64.468a5.12 5.12 0 01-1.83-.284 4.112 4.112 0 01-1.332-.866 4.919 4.919 0 01-1.048-1.42 3.627 3.627 0 01-.297-1.488v-4.603l-.014-.009zm19.07-4.075h18.107v3.192H89.73v9.548h-3.322v-9.54h-7.395v-3.191l.005-.009zm27.225 3.245l-1.545 2.761h3.06l-1.515-2.761zm-3.628-.164l.515-1.03a1.2 1.2 0 00.115-.173l.098-.173c.315-.525.721-.99 1.199-1.372a3.161 3.161 0 011.217-.56 2.64 2.64 0 011.777.276 4.75 4.75 0 011.545 1.656c.045.076.089.15.133.217.045.068.089.14.134.218l.533 1.016 5.329 9.598h-3.744l-1.879-3.494h-6.661l-1.866 3.494h-3.78l5.335-9.673z" fill="#fff"/><path fill-rule="evenodd" clip-rule="evenodd" d="M5.507 56.946h-1.16v-6.974H0v-.963h9.846v.963H5.503v6.974h.004zm14.625-4.857c.01-.4-.076-.795-.253-1.154a1.776 1.776 0 00-.742-.746 2.364 2.364 0 00-1.141-.261h-3.638a2.08 2.08 0 00-1.066.266 1.842 1.842 0 00-.719.755 2.401 2.401 0 00-.258 1.136l7.817.004zm-7.817.964v.768c0 1.462.74 2.191 2.221 2.188h3.78a1.99 1.99 0 001.372-.417 1.332 1.332 0 00.444-1.03v-.16h1.16v.16a2.522 2.522 0 01-.272 1.119 2.19 2.19 0 01-.888.923 3.225 3.225 0 01-1.652.373h-3.895c-1.149 0-2.005-.252-2.567-.755a2.844 2.844 0 01-.844-2.22v-2.09c.001-.501.14-.992.4-1.42a2.944 2.944 0 011.168-1.093 3.759 3.759 0 011.807-.417h3.345a3.63 3.63 0 012.522.803 2.588 2.588 0 01.888 1.994v1.287l-8.989-.013zm11.836 3.893h-1.163v-7.942h10.01v7.942h-1.16v-6.974h-7.691v6.974h.004zm19.986-6.974h-6.662v3.995c0 1.971-.955 2.957-2.865 2.957h-.337v-.964h.337a1.607 1.607 0 001.288-.488 2.34 2.34 0 00.418-1.54v-4.928h8.962v7.942h-1.16v-6.974h.019zm12.821 3.995a1.668 1.668 0 00-.613-1.363 2.91 2.91 0 00-1.865-.501h-6.2v-3.086h-1.186v7.942h7.173c1.776 0 2.665-.675 2.665-2.024v-.963l.026-.005zm-8.656-.888h5.774a2.4 2.4 0 011.381.276 1.054 1.054 0 01.355.887v.578a1.064 1.064 0 01-.377.887 2.293 2.293 0 01-1.372.302H48.28v-2.952l.022.022zm10.428 3.893v-7.968h1.16v7.942l-1.16.026zm3.051 0v-7.968h1.16v7.045h.373l6.55-7.045h1.888v7.942h-1.16v-7.04h-.319l-6.515 7.04-1.977.026zm4.721-9.468h.147c.47.014.94-.027 1.399-.125.255-.043.484-.183.64-.39a1.4 1.4 0 00.164-.737h.928c.018.421-.063.84-.235 1.225-.21.35-.547.606-.942.71a6.586 6.586 0 01-2.056.249 6.243 6.243 0 01-2.003-.249 1.603 1.603 0 01-.942-.714 2.663 2.663 0 01-.24-1.221h.938c-.014.254.043.508.164.732.16.188.382.311.626.347.461.097.932.139 1.403.124l.01.049zm12.662 8.505c.814-.45 1.222-1.463 1.222-3.04V49.03h8.775v6.974h.933V60h-1.11v-3.023h-9.327V60h-1.11v-3.995l.617.004zm8.883 0v-6.037h-6.525v2.832c0 1.684-.337 2.745-1.012 3.183l7.537.022zm3.264-3.893a3.173 3.173 0 01.857-2.282c.554-.56 1.427-.839 2.62-.839h3.185a4.21 4.21 0 012.02.422c.481.243.869.636 1.106 1.119a3.85 3.85 0 01.351 1.584v1.736a3.823 3.823 0 01-.36 1.598 2.572 2.572 0 01-1.119 1.132 4.14 4.14 0 01-1.994.444h-3.184c-2.286 0-3.444-1.052-3.473-3.156v-1.731l-.01-.027zm1.159 1.736c0 1.459.798 2.188 2.394 2.188h3.024c1.602 0 2.402-.73 2.399-2.188v-1.736a2.05 2.05 0 00-.618-1.598 2.563 2.563 0 00-1.776-.56h-3.025a3.412 3.412 0 00-1.332.218 1.599 1.599 0 00-.79.697 2.663 2.663 0 00-.28 1.243v1.736h.004zm22.73-4.821h-2.145l-4.033 6.734L105.025 49h-2.096v7.941h1.159v-7.036h.355l4.215 7.045h.773l4.215-7.045h.355v7.045h1.159l.04-7.92z" fill="#FF8500"/><path fill-rule="evenodd" clip-rule="evenodd" d="M59.268 8.71c-.418-.271-.498.297-.444-1.874.04-.703.018-1.408-.063-2.108L45.167 3.476c.564.888 3.349 2.504 4.241 3.107C50.9 7.635 61.59 14.964 62.35 15.328c4.041-1.908.582-2.037 7.728-2.725l2.487-.235c.701.08.324-.147.626.372l-1.155.298c-.382.049-.777.066-1.159.098-5.711.483-4.543.275-9.948 3.893l-3.265 2.335c3.15.208 10.73 1.997 14.212 2.952 2.052.56 2.456-.444 3.908-1.367 1.155-.746 12.778-8.577 13.768-9.456-2.51 0-11.414.888-12.186 1.265 0 .84.368 3.263-.316 3.645-.741-.342-.368-7.689-.35-8.776-1.173.541-2.11 1.393-3.163 2.037-.888-.297-3.495-2.1-4.325-2.663-2.38-1.612-3.509-.55-5.987-1.261l-.116-3.454C62.363 1.726 60.65.28 59.716 0l.036 7.737c-.147 1.35.155.582-.484.973z" fill="#fff"/><path fill-rule="evenodd" clip-rule="evenodd" d="M9.131 27.132c.053 0 7.248-2.317 11.374-3.014 14.42-2.441 26.874-.715 40.93 1.452 10.25 1.576 27.749 7.138 38.692 4.346 2.007-.515 3.921-1.412 4.73-2.717 1.212-1.962.843-4.07-.369-5.709.355 2.415.764 4.11-1.244 5.416-3.921 2.557-15.455.035-19.492-.848-8.203-1.776-16.02-4.44-24.48-5.638-16.277-2.308-33.033-2.712-47.894 5.278-.661.36-1.892 1.283-2.247 1.434z" fill="url(#paint0_linear)"/><path fill-rule="evenodd" clip-rule="evenodd" d="M29.818 11.489c.817.887 4.313 3.005 5.556 3.884 1.008.71 1.799 1.194 2.87 1.949 1.753 1.243 1.727.754 4.116.785 6.55.08 7.892.498 13.47.99 1.377.12 2.296-.936 3.224-1.469-.608-.75-2.793-1.971-3.766-2.641-1.625-1.115-2.1-1.74-4.756-1.55.053 3.587.324 3.552-.706 3.636-.582-.803-.173-7.404-.285-8.847-3.748 2.441-3.357 2.033-3.353 4.692l-7.181-.852c.715-.342 4.934-3.898 5.867-4.688.386-.324.577-.444.995-.75.63-.497.715-.55.981-1.194-.888-.298-.795-.542-1.634-.835l-7.892 6.428c-2.056 1.824-3.216.582-7.506.462zm57.838 2.157c.56.697 2.22 1.891 3.055 2.58l6.413 5.22c2.043 1.669 1.253 1.447 4.601 1.456-.386-.746-7.79-6.592-9.37-7.884-.889-.72-2.305-2.104-3.23-2.42-.497.382-.985.63-1.47 1.048zm-68.284 7.631c.822-.058 2.887-.72 3.744-.954 1.284-.351 6.307-4.648 7.857-5.989l.68-.692-1.56-1.123-8.016 6.525c-.586.497-.853.666-1.332 1.074-.48.409-.875.804-1.373 1.159z" fill="#fff"/><defs><linearGradient id="paint0_linear" x1="30.609" y1="-5.638" x2="86.104" y2="57.814" gradientUnits="userSpaceOnUse"><stop stop-color="#E30613"/><stop offset=".25" stop-color="#EF7D00"/><stop offset=".36" stop-color="#FFED00"/><stop offset=".49" stop-color="#009640"/><stop offset=".59" stop-color="#009FE3"/><stop offset=".7" stop-color="#312783"/><stop offset="1" stop-color="#AD4582"/></linearGradient></defs></svg>