<svg width="24" height="24" viewBox="0 0 24 24" fill="none" xmlns="http://www.w3.org/2000/svg">
<path d="M20.0055 8.19911V3.27513H15.2605V4.58997L12 2.10986L0 11.2375L2.89664 15.0458L3.9945 14.2108V21.89H10.8855V16.6966H13.1145V21.8899H20.0055V14.2106L21.1034 15.0457L24 11.2375L20.0055 8.19911ZM18.5976 20.4821H14.5224V15.2887H9.47761V20.4821H5.40234V13.1399L12 8.12149L18.5976 13.1398V20.4821ZM20.835 13.0728L12 6.35266L3.16486 13.0729L1.97278 11.5058L11.9999 3.87874L16.6683 7.42966V4.68297H18.5976V8.89708L22.0271 11.5057L20.835 13.0728Z" fill="#FF8500"/>
</svg>
