<svg width="85" height="44" viewBox="0 0 85 44" fill="none" xmlns="http://www.w3.org/2000/svg">
<path d="M16.5242 35.3586C17.1574 36.2195 17.4832 37.2682 17.4491 38.3363C17.4491 40.0036 16.8015 41.2854 15.5063 42.1818C14.2111 43.0783 12.3224 43.5265 9.84013 43.5265H0V24.4992H9.29664C11.6168 24.4992 13.3967 24.9434 14.6362 25.8319C15.2265 26.2287 15.7067 26.7684 16.0322 27.4007C16.3577 28.0331 16.5179 28.7376 16.498 29.4485C16.5162 30.314 16.2884 31.1668 15.8411 31.9079C15.3938 32.649 14.7454 33.2479 13.9712 33.635C14.9817 33.9279 15.8747 34.5308 16.5242 35.3586ZM4.36704 27.8154V32.2999H8.74837C9.83537 32.2999 10.6601 32.1099 11.2227 31.7301C11.4973 31.5463 11.7195 31.2944 11.8674 30.9989C12.0153 30.7034 12.084 30.3745 12.0666 30.0446C12.0846 29.7168 12.0161 29.3901 11.868 29.0972C11.7199 28.8042 11.4973 28.5554 11.2227 28.3757C10.6601 28.0038 9.83616 27.8178 8.75076 27.8178L4.36704 27.8154ZM12.1262 39.6404C12.7141 39.2606 13.0089 38.6717 13.0105 37.8738C13.0105 36.2972 11.8417 35.5088 9.50402 35.5088H4.37657V40.2102H9.51356C10.6721 40.2118 11.5461 40.0219 12.1357 39.6404H12.1262Z" fill="white"/>
<path d="M37.7778 24.4991V34.989C37.7778 36.181 37.6682 37.5185 37.0317 38.5651C36.3952 39.6117 35.2963 40.0909 34.1068 40.0909C33.3135 40.1263 32.533 39.8815 31.9019 39.3995C32.1001 39.2393 32.2786 39.056 32.4334 38.8536C33.2558 37.7951 33.3869 36.2716 33.3869 34.9818V24.4919L37.7778 24.4991Z" fill="white"/>
<path d="M55.6082 43.5288L51.9396 38.229H47.8872V43.5288H43.4868V24.4991H51.7227C53.2289 24.4645 54.7252 24.7522 56.1112 25.3431C57.276 25.843 58.27 26.6714 58.9717 27.7272C59.6601 28.8248 60.01 30.1009 59.9776 31.3962C60.0316 32.6814 59.6846 33.9515 58.9845 35.0306C58.2845 36.1096 57.2661 36.9441 56.0706 37.4184L60.3376 43.5335L55.6082 43.5288ZM54.495 28.9454C53.8053 28.3748 52.7993 28.0895 51.4772 28.0895H47.8896V34.722H51.4772C52.7993 34.722 53.8053 34.432 54.495 33.8518C55.1847 33.2717 55.5287 32.4564 55.5272 31.4058C55.5272 30.3282 55.1823 29.5081 54.4926 28.9454H54.495Z" fill="white"/>
<path d="M68.695 42.5776C67.1543 41.7678 65.8661 40.5496 64.9716 39.0563C64.0901 37.522 63.6262 35.7835 63.6262 34.014C63.6262 32.2445 64.0901 30.5059 64.9716 28.9717C65.8665 27.4793 67.1546 26.2619 68.695 25.4528C70.3476 24.6129 72.175 24.1752 74.0287 24.1752C75.8823 24.1752 77.7098 24.6129 79.3623 25.4528C80.9136 26.2808 82.2107 27.5148 83.1152 29.0229C84.0196 30.531 84.4974 32.2566 84.4974 34.0152C84.4974 35.7738 84.0196 37.4993 83.1152 39.0074C82.2107 40.5155 80.9136 41.7495 79.3623 42.5776C77.7098 43.4172 75.8823 43.8549 74.0287 43.8549C72.1751 43.8549 70.3476 43.4172 68.695 42.5776ZM77.0787 39.3257C77.9807 38.8192 78.7236 38.0712 79.2241 37.1657C79.7326 36.1926 79.9983 35.1108 79.9983 34.0128C79.9983 32.9147 79.7326 31.833 79.2241 30.8599C78.7237 29.9543 77.9808 29.2063 77.0787 28.6999C76.1446 28.1914 75.0981 27.925 74.0346 27.925C72.9712 27.925 71.9246 28.1914 70.9906 28.6999C70.0883 29.206 69.3453 29.9541 68.8452 30.8599C68.3364 31.8329 68.0707 32.9147 68.0707 34.0128C68.0707 35.1109 68.3364 36.1926 68.8452 37.1657C69.3454 38.0714 70.0884 38.8195 70.9906 39.3257C71.9247 39.834 72.9712 40.1003 74.0346 40.1003C75.0981 40.1003 76.1446 39.834 77.0787 39.3257Z" fill="white"/>
<path d="M12.1214 19.9265L8.45279 14.6244H4.40041V19.9265H0V0.896888H8.23586C9.74211 0.862317 11.2383 1.15006 12.6244 1.74085C13.7892 2.24064 14.7833 3.0691 15.4849 4.12492C16.1734 5.22249 16.5233 6.49867 16.4908 7.794C16.5244 9.08697 16.169 10.3602 15.4706 11.4488C14.7623 12.5049 13.7581 13.3285 12.5838 13.8162L16.8531 19.9265H12.1214ZM11.0082 5.34318C10.3201 4.77259 9.31412 4.4873 7.99034 4.4873H4.41471V11.1174H7.99034C9.31253 11.1174 10.3185 10.8273 11.0082 10.2472C11.6979 9.66708 12.0419 8.85173 12.0403 7.80115C12.0403 6.72514 11.6963 5.90582 11.0082 5.34318Z" fill="white"/>
<path d="M27.9518 15.9117L28.0781 15.9809C27.4204 16.3119 26.6967 16.4907 25.9605 16.5039C25.2243 16.5171 24.4946 16.3644 23.8255 16.0572C22.5823 15.4354 21.6293 14.3549 21.1676 13.0437C20.1521 10.3473 20.7576 6.64008 23.3416 5.02845C24.0508 4.59791 24.8577 4.35474 25.6867 4.32179C26.5157 4.28885 27.3394 4.46721 28.0805 4.84011C24.8743 6.44459 24.3571 11.2294 26.0734 14.0688C26.5185 14.844 27.1683 15.4815 27.9518 15.9117Z" fill="white"/>
<path d="M39.296 10.4117C39.296 13.7303 37.8658 17.0346 35.0315 18.8846C33.6129 19.7912 31.9617 20.2666 30.2783 20.2531H25.8755C27.8073 20.2679 29.6888 19.6378 31.2222 18.4627C32.7055 17.2852 33.8016 15.6899 34.3688 13.8829C35.5869 10.1089 34.7383 5.50764 31.7467 2.79218C30.138 1.34822 28.0489 0.555974 25.8874 0.570229C27.3343 0.570229 28.7813 0.570229 30.2282 0.570229C31.5703 0.553952 32.8984 0.844232 34.1114 1.41896C35.6078 2.16269 36.8668 3.30959 37.7466 4.73043C38.7839 6.44211 39.3206 8.4103 39.296 10.4117Z" fill="white"/>
<path d="M43.4868 0.896851H47.8896V19.9265H43.4868V0.896851Z" fill="white"/>
<path d="M34.0829 43.8553H29.6801C27.3249 43.8553 25.4926 43.1028 24.1831 41.5976C22.8737 40.0925 22.2181 37.9468 22.2166 35.1606V24.4991H26.6265V35.1535C26.6265 37.9428 27.282 40.0885 28.5931 41.5905C29.9042 43.0924 31.7341 43.8474 34.0829 43.8553Z" fill="white"/>
</svg>
