<svg width="12" height="14" viewBox="0 0 12 14" fill="none" xmlns="http://www.w3.org/2000/svg">
<path d="M10.656 9.54819C9.87816 8.8765 9.08879 8.46962 8.32052 9.14031L7.86177 9.54566C7.52612 9.8399 6.90206 11.2148 4.48922 8.4123C2.07688 5.61339 3.51242 5.1776 3.84857 4.88589L4.30984 4.48003C5.07409 3.80782 4.78567 2.96161 4.23447 2.09053L3.90183 1.56292C3.34812 0.693871 2.74516 0.123132 1.9789 0.794322L1.56486 1.15959C1.2262 1.40869 0.279556 2.21838 0.0499287 3.75659C-0.226428 5.60223 0.645351 7.71574 2.64265 10.0347C4.63744 12.3547 6.59053 13.52 8.44061 13.4997C9.97815 13.483 10.9067 12.65 11.1971 12.3471L11.6127 11.9813C12.3769 11.3106 11.9021 10.6278 11.1238 9.95456L10.656 9.54819Z" fill="#333333"/>
</svg>
