<?xml version="1.0" encoding="utf-8"?><svg xmlns="http://www.w3.org/2000/svg" xmlns:xlink="http://www.w3.org/1999/xlink"><symbol viewBox="0 0 24 24" id="cross" xmlns="http://www.w3.org/2000/svg"><path d="M22 2L2 22M2 2l20 20"/></symbol><symbol class="bicon bicon-tabler bicon-tabler-file-text" stroke-width="2" stroke-linecap="round" stroke-linejoin="round" viewBox="0 0 24 24" id="document" xmlns="http://www.w3.org/2000/svg"><path d="M0 0h24v24H0z"/><path d="M14 3v4a1 1 0 001 1h4"/><path d="M17 21H7a2 2 0 01-2-2V5a2 2 0 012-2h7l5 5v11a2 2 0 01-2 2zM9 9h1m-1 4h6m-6 4h6"/></symbol><symbol viewBox="0 0 64 64" stroke-width="3" id="next" xmlns="http://www.w3.org/2000/svg"><path d="M18.86 57.47l25.26-26.63L18.86 6.58"/></symbol><symbol viewBox="0 0 12 14" id="phone" xmlns="http://www.w3.org/2000/svg"><path d="M10.656 9.548c-.778-.671-1.567-1.078-2.335-.408l-.46.406c-.335.294-.959 1.669-3.372-1.134-2.412-2.799-.977-3.234-.64-3.526l.46-.406c.765-.672.477-1.518-.075-2.39l-.332-.527C3.348.693 2.745.123 1.979.794l-.414.366C1.226 1.409.28 2.218.05 3.757c-.276 1.845.595 3.959 2.593 6.278C4.637 12.355 6.59 13.52 8.44 13.5a3.88 3.88 0 002.756-1.153l.416-.366c.764-.67.29-1.353-.49-2.026l-.467-.407z"/></symbol><symbol class="eicon eicon-tabler eicon-tabler-plus" stroke-width="2" stroke-linecap="round" stroke-linejoin="round" viewBox="0 0 24 24" id="plus" xmlns="http://www.w3.org/2000/svg"><path d="M0 0h24v24H0zm12 5v14m-7-7h14"/></symbol><symbol viewBox="0 0 64 64" stroke-width="3" id="prev" xmlns="http://www.w3.org/2000/svg"><path d="M45.15 57.47L19.88 30.84 45.15 6.58"/></symbol><symbol viewBox="0 0 24 24" id="question" xmlns="http://www.w3.org/2000/svg"><g data-name="Layer 2"><g data-name="menu-arrow-circle"><path d="M12 2a10 10 0 1010 10A10 10 0 0012 2zm0 18a8 8 0 118-8 8 8 0 01-8 8z"/><path d="M12 6a3.5 3.5 0 00-3.5 3.5 1 1 0 002 0A1.5 1.5 0 1112 11a1 1 0 00-1 1v2a1 1 0 002 0v-1.16A3.49 3.49 0 0012 6z"/><circle cx="12" cy="17" r="1"/></g></g></symbol><symbol viewBox="0 0 510.127 510.127" id="ruble" xmlns="http://www.w3.org/2000/svg"><path d="M34.786 428.963h81.158v69.572c0 3.385 1.083 6.156 3.262 8.322 2.173 2.18 4.951 3.27 8.335 3.27h60.502c3.14 0 5.857-1.09 8.152-3.27 2.295-2.166 3.439-4.938 3.439-8.322v-69.572h182.964c3.377 0 6.156-1.076 8.334-3.256 2.18-2.178 3.262-4.951 3.262-8.336v-46.377c0-3.365-1.082-6.156-3.262-8.322-2.172-2.18-4.957-3.27-8.334-3.27h-182.97v-42.754h123.184c48.305 0 87.73-14.719 118.293-44.199 30.551-29.449 45.834-67.49 45.834-114.125 0-46.604-15.283-84.646-45.834-114.125C410.548 14.749 371.116 0 322.812 0H127.535c-3.385 0-6.157 1.089-8.335 3.256-2.173 2.179-3.262 4.969-3.262 8.335v227.896H34.786c-3.384 0-6.157 1.145-8.335 3.439-2.172 2.295-3.262 5.012-3.262 8.151v53.978c0 3.385 1.083 6.158 3.262 8.336 2.179 2.18 4.945 3.256 8.335 3.256h81.158v42.754H34.786c-3.384 0-6.157 1.09-8.335 3.27-2.172 2.166-3.262 4.951-3.262 8.322v46.377c0 3.385 1.083 6.158 3.262 8.336 2.178 2.181 4.95 3.257 8.335 3.257zM199.628 77.179h115.938c25.6 0 46.248 7.485 61.953 22.46 15.697 14.976 23.549 34.547 23.549 58.691 0 24.156-7.852 43.733-23.549 58.691-15.705 14.988-36.354 22.473-61.953 22.473H199.628V77.179z"/></symbol><symbol viewBox="0 0 64 64" stroke-width="3" id="whatsapp" xmlns="http://www.w3.org/2000/svg"><path d="M35.66 35.67a16.71 16.71 0 01-7.75-6.78.82.82 0 01.12-.95l1.55-1.69a.8.8 0 00.15-.87l-2.44-4.65s-1.08-1.65-3.29-.23c0 0-5.81 4.54-2.1 10.78s7.2 8.35 10.34 9.88c2.73 1.33 8.64 3.1 12.21-3.39 0 0 1.25-2 0-2.51-.57-.23-3.68-1.77-5-2.41a.82.82 0 00-1 .22l-1.86 2.35a.81.81 0 01-.93.25z"/><path d="M8.86 53.49l4-11.2a23 23 0 118.64 8.8z"/></symbol></svg>