<?xml version="1.0" encoding="utf-8"?><svg xmlns="http://www.w3.org/2000/svg" xmlns:xlink="http://www.w3.org/1999/xlink"><symbol viewBox="0 0 24 24" id="cross" xmlns="http://www.w3.org/2000/svg"><path d="M22 2L2 22M2 2l20 20"/></symbol><symbol viewBox="0 0 24 24" id="document" xmlns="http://www.w3.org/2000/svg"><g data-name="Layer 2"><g data-name="file-text"><path d="M15 16H9a1 1 0 000 2h6a1 1 0 000-2zm-6-2h3a1 1 0 000-2H9a1 1 0 000 2z"/><path d="M19.74 8.33l-5.44-6a1 1 0 00-.74-.33h-7A2.53 2.53 0 004 4.5v15A2.53 2.53 0 006.56 22h10.88A2.53 2.53 0 0020 19.5V9a1 1 0 00-.26-.67zM14 5l2.74 3h-2a.79.79 0 01-.74-.85zm3.44 15H6.56a.53.53 0 01-.56-.5v-15a.53.53 0 01.56-.5H12v3.15A2.79 2.79 0 0014.71 10H18v9.5a.53.53 0 01-.56.5z"/></g></g></symbol><symbol viewBox="0 0 24 24" id="home" xmlns="http://www.w3.org/2000/svg"><path d="M20.006 8.2V3.274H15.26V4.59L12 2.11 0 11.238l2.897 3.808 1.098-.835v7.679h6.89v-5.193h2.23v5.193h6.89v-7.68l1.098.836L24 11.238l-3.994-3.039zm-1.408 12.282h-4.076V15.29H9.478v5.193H5.402V13.14L12 8.12l6.598 5.019v7.342zm2.237-7.41L12 6.353l-8.835 6.72-1.192-1.566L12 3.879l4.668 3.55V4.684h1.93v4.214l3.43 2.609-1.193 1.567z"/></symbol><symbol viewBox="0 0 85 44" id="logo-footer" xmlns="http://www.w3.org/2000/svg"><path d="M16.524 35.359c.633.86.96 1.91.925 2.977 0 1.668-.648 2.95-1.943 3.846-1.295.896-3.184 1.344-5.666 1.344H0V24.5h9.297c2.32 0 4.1.444 5.34 1.333a4.215 4.215 0 011.861 3.616 4.573 4.573 0 01-2.527 4.187 5.022 5.022 0 012.553 1.724zM4.367 27.815V32.3h4.381c1.087 0 1.912-.19 2.475-.57a1.907 1.907 0 00.844-1.685 1.872 1.872 0 00-.844-1.67c-.563-.371-1.387-.557-2.472-.557l-4.384-.003zm7.76 11.825c.587-.38.882-.968.883-1.766 0-1.577-1.168-2.365-3.506-2.365H4.377v4.701h5.137c1.158.002 2.032-.188 2.622-.57h-.01zM37.778 24.5v10.489c0 1.192-.11 2.53-.746 3.576-.637 1.047-1.736 1.526-2.925 1.526a3.384 3.384 0 01-2.205-.691 3.19 3.19 0 00.531-.546c.823-1.059.954-2.582.954-3.872v-10.49l4.39.007zm17.83 19.029l-3.668-5.3h-4.053v5.3h-4.4v-19.03h8.236a10.571 10.571 0 014.388.844 6.524 6.524 0 012.86 2.384 6.595 6.595 0 011.007 3.67 6.2 6.2 0 01-3.907 6.021l4.267 6.115-4.73-.004zm-1.113-14.584c-.69-.57-1.696-.855-3.018-.855H47.89v6.632h3.587c1.322 0 2.328-.29 3.018-.87.69-.58 1.034-1.396 1.032-2.446 0-1.078-.345-1.898-1.034-2.46h.002zm14.2 13.633a9.484 9.484 0 01-3.723-3.522 10.122 10.122 0 010-10.084 9.484 9.484 0 013.723-3.52 11.772 11.772 0 0110.667 0 9.705 9.705 0 010 17.126 11.775 11.775 0 01-10.667 0zm8.384-3.252a5.564 5.564 0 002.145-2.16 6.808 6.808 0 000-6.306 5.561 5.561 0 00-2.145-2.16 6.367 6.367 0 00-6.088 0 5.555 5.555 0 00-2.146 2.16 6.804 6.804 0 000 6.306 5.557 5.557 0 002.146 2.16 6.369 6.369 0 006.088 0zM12.121 19.927l-3.668-5.303H4.4v5.303H0V.896h8.236a10.574 10.574 0 014.388.844 6.523 6.523 0 012.86 2.384 6.593 6.593 0 011.007 3.669 6.458 6.458 0 01-1.02 3.655 6.459 6.459 0 01-2.887 2.367l4.27 6.11H12.12zM11.008 5.343c-.688-.57-1.694-.856-3.018-.856H4.415v6.63H7.99c1.323 0 2.329-.29 3.018-.87.69-.58 1.034-1.395 1.032-2.446 0-1.076-.344-1.895-1.032-2.458zm16.944 10.569l.126.069a4.906 4.906 0 01-4.252.076 5.36 5.36 0 01-2.658-3.013c-1.016-2.697-.41-6.404 2.174-8.016a4.893 4.893 0 014.739-.188c-3.207 1.605-3.724 6.39-2.008 9.229a4.867 4.867 0 001.879 1.843z"/><path d="M39.296 10.412c0 3.318-1.43 6.623-4.264 8.473a8.697 8.697 0 01-4.754 1.368h-4.402a8.68 8.68 0 005.346-1.79 9.468 9.468 0 003.147-4.58c1.218-3.774.37-8.375-2.622-11.09A8.686 8.686 0 0025.887.57h4.341a8.82 8.82 0 013.883.849 8.973 8.973 0 013.636 3.311 10.708 10.708 0 011.549 5.682zM43.487.897h4.403v19.03h-4.403V.896zm-9.404 42.958H29.68c-2.355 0-4.187-.752-5.497-2.257-1.31-1.505-1.965-3.651-1.966-6.437V24.499h4.41v10.655c0 2.789.655 4.934 1.966 6.436 1.311 1.502 3.141 2.257 5.49 2.265z"/></symbol><symbol viewBox="0 0 64 64" stroke-width="3" id="next" xmlns="http://www.w3.org/2000/svg"><path d="M18.86 57.47l25.26-26.63L18.86 6.58"/></symbol><symbol viewBox="0 0 12 14" id="phone" xmlns="http://www.w3.org/2000/svg"><path d="M10.656 9.548c-.778-.671-1.567-1.078-2.335-.408l-.46.406c-.335.294-.959 1.669-3.372-1.134-2.412-2.799-.977-3.234-.64-3.526l.46-.406c.765-.672.477-1.518-.075-2.39l-.332-.527C3.348.693 2.745.123 1.979.794l-.414.366C1.226 1.409.28 2.218.05 3.757c-.276 1.845.595 3.959 2.593 6.278C4.637 12.355 6.59 13.52 8.44 13.5a3.88 3.88 0 002.756-1.153l.416-.366c.764-.67.29-1.353-.49-2.026l-.467-.407z"/></symbol><symbol class="gicon gicon-tabler gicon-tabler-plus" stroke-width="2" stroke-linecap="round" stroke-linejoin="round" viewBox="0 0 24 24" id="plus" xmlns="http://www.w3.org/2000/svg"><path d="M0 0h24v24H0zm12 5v14m-7-7h14"/></symbol><symbol viewBox="0 0 64 64" stroke-width="3" id="prev" xmlns="http://www.w3.org/2000/svg"><path d="M45.15 57.47L19.88 30.84 45.15 6.58"/></symbol><symbol viewBox="0 0 24 24" id="question" xmlns="http://www.w3.org/2000/svg"><g data-name="Layer 2"><g data-name="menu-arrow-circle"><path d="M12 2a10 10 0 1010 10A10 10 0 0012 2zm0 18a8 8 0 118-8 8 8 0 01-8 8z"/><path d="M12 6a3.5 3.5 0 00-3.5 3.5 1 1 0 002 0A1.5 1.5 0 1112 11a1 1 0 00-1 1v2a1 1 0 002 0v-1.16A3.49 3.49 0 0012 6z"/><circle cx="12" cy="17" r="1"/></g></g></symbol><symbol viewBox="0 0 510.127 510.127" id="ruble" xmlns="http://www.w3.org/2000/svg"><path d="M34.786 428.963h81.158v69.572c0 3.385 1.083 6.156 3.262 8.322 2.173 2.18 4.951 3.27 8.335 3.27h60.502c3.14 0 5.857-1.09 8.152-3.27 2.295-2.166 3.439-4.938 3.439-8.322v-69.572h182.964c3.377 0 6.156-1.076 8.334-3.256 2.18-2.178 3.262-4.951 3.262-8.336v-46.377c0-3.365-1.082-6.156-3.262-8.322-2.172-2.18-4.957-3.27-8.334-3.27h-182.97v-42.754h123.184c48.305 0 87.73-14.719 118.293-44.199 30.551-29.449 45.834-67.49 45.834-114.125 0-46.604-15.283-84.646-45.834-114.125C410.548 14.749 371.116 0 322.812 0H127.535c-3.385 0-6.157 1.089-8.335 3.256-2.173 2.179-3.262 4.969-3.262 8.335v227.896H34.786c-3.384 0-6.157 1.145-8.335 3.439-2.172 2.295-3.262 5.012-3.262 8.151v53.978c0 3.385 1.083 6.158 3.262 8.336 2.179 2.18 4.945 3.256 8.335 3.256h81.158v42.754H34.786c-3.384 0-6.157 1.09-8.335 3.27-2.172 2.166-3.262 4.951-3.262 8.322v46.377c0 3.385 1.083 6.158 3.262 8.336 2.178 2.181 4.95 3.257 8.335 3.257zM199.628 77.179h115.938c25.6 0 46.248 7.485 61.953 22.46 15.697 14.976 23.549 34.547 23.549 58.691 0 24.156-7.852 43.733-23.549 58.691-15.705 14.988-36.354 22.473-61.953 22.473H199.628V77.179z"/></symbol><symbol viewBox="0 0 64 64" stroke-width="3" id="whatsapp" xmlns="http://www.w3.org/2000/svg"><path d="M35.66 35.67a16.71 16.71 0 01-7.75-6.78.82.82 0 01.12-.95l1.55-1.69a.8.8 0 00.15-.87l-2.44-4.65s-1.08-1.65-3.29-.23c0 0-5.81 4.54-2.1 10.78s7.2 8.35 10.34 9.88c2.73 1.33 8.64 3.1 12.21-3.39 0 0 1.25-2 0-2.51-.57-.23-3.68-1.77-5-2.41a.82.82 0 00-1 .22l-1.86 2.35a.81.81 0 01-.93.25z"/><path d="M8.86 53.49l4-11.2a23 23 0 118.64 8.8z"/></symbol></svg>