<?xml version="1.0" encoding="utf-8"?><svg xmlns="http://www.w3.org/2000/svg" xmlns:xlink="http://www.w3.org/1999/xlink"><symbol viewBox="0 0 24 24" id="cross" xmlns="http://www.w3.org/2000/svg"><path d="M22 2L2 22M2 2l20 20"/></symbol><symbol class="bicon bicon-tabler bicon-tabler-file-text" stroke-width="2" stroke-linecap="round" stroke-linejoin="round" viewBox="0 0 24 24" id="document" xmlns="http://www.w3.org/2000/svg"><path d="M0 0h24v24H0z"/><path d="M14 3v4a1 1 0 001 1h4"/><path d="M17 21H7a2 2 0 01-2-2V5a2 2 0 012-2h7l5 5v11a2 2 0 01-2 2zM9 9h1m-1 4h6m-6 4h6"/></symbol><symbol viewBox="0 0 12 14" id="phone" xmlns="http://www.w3.org/2000/svg"><path d="M10.656 9.548c-.778-.671-1.567-1.078-2.335-.408l-.46.406c-.335.294-.959 1.669-3.372-1.134-2.412-2.799-.977-3.234-.64-3.526l.46-.406c.765-.672.477-1.518-.075-2.39l-.332-.527C3.348.693 2.745.123 1.979.794l-.414.366C1.226 1.409.28 2.218.05 3.757c-.276 1.845.595 3.959 2.593 6.278C4.637 12.355 6.59 13.52 8.44 13.5a3.88 3.88 0 002.756-1.153l.416-.366c.764-.67.29-1.353-.49-2.026l-.467-.407z"/></symbol><symbol class="dicon dicon-tabler dicon-tabler-plus" stroke-width="2" stroke-linecap="round" stroke-linejoin="round" viewBox="0 0 24 24" id="plus" xmlns="http://www.w3.org/2000/svg"><path d="M0 0h24v24H0zm12 5v14m-7-7h14"/></symbol><symbol viewBox="0 0 64 64" stroke-width="3" id="whatsapp" xmlns="http://www.w3.org/2000/svg"><path d="M35.66 35.67a16.71 16.71 0 01-7.75-6.78.82.82 0 01.12-.95l1.55-1.69a.8.8 0 00.15-.87l-2.44-4.65s-1.08-1.65-3.29-.23c0 0-5.81 4.54-2.1 10.78s7.2 8.35 10.34 9.88c2.73 1.33 8.64 3.1 12.21-3.39 0 0 1.25-2 0-2.51-.57-.23-3.68-1.77-5-2.41a.82.82 0 00-1 .22l-1.86 2.35a.81.81 0 01-.93.25z"/><path d="M8.86 53.49l4-11.2a23 23 0 118.64 8.8z"/></symbol></svg>